<svg id="レイヤー_1" data-name="レイヤー 1" xmlns="http://www.w3.org/2000/svg" viewBox="0 0 1500 321"><defs><style>.cls-1{fill:#8673ff;}.cls-2{fill:#ecc74f;}.cls-3{fill:#313334;}.cls-4{fill:#dcdbdc;}.cls-5{fill:#c1c1c2;}.cls-6{fill:#fff;}.cls-7{fill:#036eb7;}</style></defs><path class="cls-1" d="M492.3,272.35c3.32-.85,7.06-3.81,10.52-5a58.32,58.32,0,0,1,23.69-3.21c38,3.37,62.27,36.72,68,67.7,2.62,14.09,2.17,28.33.36,42.48-1.58,12.39-4.2,25-11.31,35.89-8.65,13.32-20.3,26.19-35.27,33.2-16,7.49-34.78,9.13-52.2,6.28-9.39-1.53-20.37-4-28.88-8.16a46.54,46.54,0,0,1-20.59-19.31c-8.53-15.66-6.68-33.62-4.15-50.32,2.81-18.53,5.5-36.94,11.65-54.88,3.08-9,6.88-18.87,14.24-25.85C486.76,273.81,492.27,272.36,492.3,272.35Z"/><path class="cls-2" d="M950.43,271.59c3.32-.86,7.06-3.82,10.52-5a58.31,58.31,0,0,1,23.69-3.2c38,3.36,62.26,36.71,68,67.69,2.62,14.09,2.17,28.34.36,42.48-1.58,12.4-4.2,25-11.31,35.9-8.65,13.31-20.3,26.18-35.27,33.19-16,7.49-34.78,9.13-52.2,6.29-9.39-1.54-20.38-4-28.88-8.16a46.54,46.54,0,0,1-20.59-19.31c-8.53-15.67-6.68-33.63-4.15-50.33,2.81-18.52,5.5-36.94,11.65-54.87,3.07-9,6.88-18.88,14.24-25.85C944.89,273,950.4,271.6,950.43,271.59Z"/><path class="cls-3" d="M768.74,249.64c-1.35-4.12-5.7-6.31-9.92-6.21a6.38,6.38,0,0,0-3.05.5,9.23,9.23,0,0,0-2.78,1.41c-3.19,2.43-3.6,6.42-2.45,10.09.78,2.52,2.7,3.49,1.36,6.21-1.25,2.54-2.59,5-3.83,7.56-.35,0-.94.3-.82.41,2.4,2.3,10.56,6,14,3.58,2.55-1.83.41-8.63,1-11.46a5.49,5.49,0,0,1,1.78-2.1l.13-.09a15.45,15.45,0,0,0,1.63-1.36,16.37,16.37,0,0,0,2.15-1.91C769.49,254.27,769.49,251.94,768.74,249.64Z"/><path class="cls-4" d="M719.13,276c3.23-.84,6.88-3.72,10.25-4.86A56.85,56.85,0,0,1,752.45,268c37,3.28,60.66,35.76,66.27,65.94,2.56,13.73,2.12,27.6.36,41.38-1.54,12.07-4.1,24.32-11,35-8.43,13-19.78,25.5-34.36,32.33-15.56,7.3-33.88,8.89-50.85,6.12-9.14-1.49-19.85-3.86-28.13-7.94A45.43,45.43,0,0,1,674.66,422c-8.31-15.27-6.5-32.76-4-49,2.74-18,5.36-36,11.35-53.45,3-8.74,6.7-18.39,13.87-25.18C713.73,277.41,719.1,276,719.13,276Z"/><path class="cls-5" d="M684.59,312.7c-2.59,7-5.29,13.82-6.86,21.14-2.58,12.07-4.37,23.94-6.15,34.5s-3.18,25.07-3,28.65,1.2,22.62,12.12,33.93,32.19,16.78,35.57,17.34,19.27,2.07,21.85,1.89,17.68-1.89,20.66-2.64c15.86-4,27.3-12.27,38.35-23.37l4.17-4.53s-7.55,5.28-11.73,8.11c-3.92,2.66-9,4.21-13.45,5.83-4.3,1.56-8.47,3.38-13.09,3.92-11.27,1.29-23.81-2.24-34.68-4.75a68.39,68.39,0,0,1-33.72-19.09,24.07,24.07,0,0,1-4.58-5.7c-3-5.92-3.26-12.7-4-19.12a171.89,171.89,0,0,1-1.59-23.44c.16-9,.34-18,.84-27,.36-6.37,2.79-12.74,4.6-18.84,1.73-5.8,3.47-11.61,5.17-17.42l1.15-3.88,4.17-7.36c-6.6,5-12.15,11.82-14.91,19.43C685.18,311.09,684.89,311.9,684.59,312.7Z"/><path class="cls-3" d="M757.74,279.33c-14.85-.65-29.42,5.23-40.8,15.09-5.13,4.44-13.37,16.44-16.3,23.43-2.7,6.41-4.63,16-1.63,22.39,5.14,11,14.76,7.78,23.87,6.34,12.27-1.94,22.34-5.59,35.31-6.31,16.6-.92,32.41,11.9,44.63-4.39,4.84-6.46,2.46-18.05-.53-25.1C792.67,288.06,776.93,280.17,757.74,279.33Z"/><path class="cls-6" d="M783.63,300.18c-5.86.81-10.21,8.48-10.21,13.5.18,7.78,8.32,11.47,15.07,9.39,6.4-1.9,8.89-9.92,7.09-15.56-2.45-7.68-10.21-7.49-11.85-7.33"/><path class="cls-6" d="M740,299.86c-6,.82-10.45,8.67-10.45,13.81.18,8,8.52,11.74,15.41,9.61,6.55-1.94,9.56-10.32,7.26-15.92-3-7.29-9-8.1-12.19-7.5"/><path class="cls-3" d="M748.05,303.09c-7.3-2.28-9.93,8.88-2.77,8.79,3.34,0,4.89-1.73,5-4.31a4.19,4.19,0,0,0-2.15-4.41"/><path class="cls-3" d="M789.64,302.1c-6.88-.47-7.43,9.09-1.58,8.71,3.4-.2,5.3-2.21,5-4.9-.25-1.61-.93-3.56-3.38-3.76"/><path class="cls-7" d="M770.27,241.61c2.3,3.09,4.28,6.84,3.38,10.78-.21,1,1.77.71,2-.15.95-4.16-1.13-8.21-3.57-11.48-.52-.7-2.36.06-1.77.85Z"/><path class="cls-7" d="M775.43,233.8a23.54,23.54,0,0,1,9.32,21.67c-.13,1,1.85.8,2-.12a24.7,24.7,0,0,0-9.8-22.71c-.74-.53-2.4.49-1.48,1.16Z"/><path class="cls-7" d="M744.31,250.83c.59-3.5,1.86-7.65,5.13-9.55,1.13-.65.1-1.68-.86-1.13-3.87,2.25-5.51,6.6-6.23,10.83-.16,1,1.82.71,2-.15Z"/><path class="cls-7" d="M735.07,252.5A23.39,23.39,0,0,1,744.26,231c1-.79-.5-1.55-1.3-1a24.91,24.91,0,0,0-9.82,23c.12.94,2.06.45,1.93-.52Z"/></svg>